<svg xmlns="http://www.w3.org/2000/svg" width="106" height="32" viewBox="0 0 106 32">
  <metadata><?xpacket begin="﻿" id="W5M0MpCehiHzreSzNTczkc9d"?>
<x:xmpmeta xmlns:x="adobe:ns:meta/" x:xmptk="Adobe XMP Core 5.6-c142 79.160924, 2017/07/13-01:06:39        ">
   <rdf:RDF xmlns:rdf="http://www.w3.org/1999/02/22-rdf-syntax-ns#">
      <rdf:Description rdf:about=""/>
   </rdf:RDF>
</x:xmpmeta>
                                                                                                    
                                                                                                    
                                                                                                    
                                                                                                    
                                                                                                    
                                                                                                    
                                                                                                    
                                                                                                    
                                                                                                    
                                                                                                    
                                                                                                    
                                                                                                    
                                                                                                    
                                                                                                    
                                                                                                    
                                                                                                    
                                                                                                    
                                                                                                    
                                                                                                    
                                                                                                    
                           
<?xpacket end="w"?></metadata>
<defs>
    <style>
      .cls-1 {
        fill: #d5d5d5;
      }

      .cls-1, .cls-2 {
        fill-rule: evenodd;
      }

      .cls-2 {
        fill: #ef902f;
      }
    </style>
  </defs>
  <path id="Shape_1_copy_106" data-name="Shape 1 copy 106" class="cls-1" d="M9,16l2.967,5.027L18,22.11,13.8,26.3,14.562,32,9,29.558,3.433,32,4.2,26.3l-4.2-4.19L6.03,21.026,9,16"/>
  <path id="Shape_1_copy_107" data-name="Shape 1 copy 107" class="cls-1" d="M31,16l2.967,5.027L40,22.11,35.8,26.3,36.562,32,31,29.558,25.433,32,26.2,26.3l-4.2-4.19,6.036-1.084L31,16"/>
  <path id="Shape_1_copy_108" data-name="Shape 1 copy 108" class="cls-1" d="M53,16l2.967,5.027L62,22.11,57.8,26.3,58.562,32,53,29.558,47.433,32,48.2,26.3l-4.2-4.19,6.036-1.084L53,16"/>
  <path id="Shape_1_copy_108-2" data-name="Shape 1 copy 108" class="cls-1" d="M75,16l2.967,5.027L84,22.11,79.8,26.3,80.562,32,75,29.558,69.433,32,70.2,26.3l-4.2-4.19,6.036-1.084L75,16"/>
  <path id="Shape_1_copy_109" data-name="Shape 1 copy 109" class="cls-1" d="M97,16l2.967,5.027L106,22.11l-4.2,4.19,0.763,5.7L97,29.558,91.433,32,92.2,26.3l-4.2-4.19,6.036-1.084L97,16"/>
  <path id="Shape_1_copy_110" data-name="Shape 1 copy 110" class="cls-2" d="M9,0l2.967,5.027L18,6.11,13.8,10.3,14.562,16,9,13.558,3.433,16,4.2,10.3l-4.2-4.19L6.03,5.026,9,0"/>
  <path id="Shape_1_copy_110-2" data-name="Shape 1 copy 110" class="cls-2" d="M31,0l2.967,5.027L40,6.11,35.8,10.3,36.562,16,31,13.558,25.433,16,26.2,10.3l-4.2-4.19L28.03,5.026,31,0"/>
  <path id="Shape_1_copy_110-3" data-name="Shape 1 copy 110" class="cls-2" d="M53,0l2.967,5.027L62,6.11,57.8,10.3,58.562,16,53,13.558,47.433,16,48.2,10.3l-4.2-4.19L50.03,5.026,53,0"/>
  <path id="Shape_1_copy_110-4" data-name="Shape 1 copy 110" class="cls-2" d="M75,0l2.967,5.027L84,6.11,79.8,10.3,80.562,16,75,13.558,69.433,16,70.2,10.3l-4.2-4.19L72.03,5.026,75,0"/>
  <path id="Shape_1_copy_110-5" data-name="Shape 1 copy 110" class="cls-2" d="M97,0l2.967,5.027L106,6.11l-4.2,4.19,0.763,5.7L97,13.558,91.433,16,92.2,10.3l-4.2-4.19L94.03,5.026,97,0"/>
</svg>
